<svg clip-rule="evenodd" fill-rule="evenodd" height="321" image-rendering="optimizeQuality" shape-rendering="geometricPrecision" text-rendering="geometricPrecision" width="604" xmlns="http://www.w3.org/2000/svg">
<path d="m19.5-.5h134c10.077 3.5805 16.577 10.5805 19.5 21 .667 44 .667 88 0 132-2.833 10.833-9.667 17.667-20.5 20.5-44.333.667-88.6667.667-133 0-9.85019-3.351-16.51686-9.851-20-19.5 0-44.667 0-89.3333 0-134 3.66667-9.66667 10.33333-16.33333 20-20z" fill="#09aeef" opacity=".997"/><path d="m444.5-.5h20c1.126 6.58589 1.292 13.2526.5 20-.5.5-1 1-1.5 1.5-5.667.6667-11.333.6667-17 0-1.167-.5-2-1.3333-2.5-2.5-.751-6.3837-.584-12.71701.5-19z" fill="#00aeee" opacity=".993"/><path d="m31.5 20.5c10.7263-2.1613 18.5596 1.5053 23.5 11 .3748 24.0409 12.5415 36.5409 36.5 37.5 14.487 7.5441 16.821 17.8774 7 31-5.7119 3.801-12.0452 5.468-19 5-16.4413 6.03-24.608 17.863-24.5 35.5-4.4297 10.425-12.263 14.258-23.5 11.5-9.6569-4.939-13.1569-12.772-10.5-23.5 2.5617-5.561 6.7284-9.394 12.5-11.5 20.9804.031 32.647-10.303 35-31-1.2359-13.2327-7.9026-22.566-20-28-5.6489-1.0813-11.3156-2.0813-17-3-9.6569-4.939-13.1569-12.7724-10.5-23.5 2.3566-4.8545 5.8566-8.5212 10.5-11z" fill="#fdfefe"/><path d="m80.5 20.5c16.8593-.9747 25.026 7.0253 24.5 24 2.646 9.81 8.48 16.9766 17.5 21.5 7.345 1.6664 14.678 3.3331 22 5 7.963 6.1739 10.13 14.0072 6.5 23.5-2.618 4.6163-6.451 7.783-11.5 9.5-22.698.365-34.531 11.865-35.5 34.5-3.672 11.59-11.5052 16.09-23.5 13.5-9.7517-4.334-13.5851-11.834-11.5-22.5 4.8144-10.328 12.981-14.828 24.5-13.5 14.624-4.453 22.291-14.286 23-29.5-.612-14.7863-7.945-24.6197-22-29.5-18.131 1.5325-26.631-6.6342-25.5-24.5 2.0188-5.8502 5.8522-9.8502 11.5-12z" fill="#fdfefe"/><path d="m128.5 20.5c16.826-2.0024 24.66 5.3309 23.5 22-3.392 9.7253-10.225 14.2253-20.5 13.5-14.004-5.4971-17.837-14.9971-11.5-28.5 2.441-2.9536 5.275-5.2869 8.5-7z" fill="#fcfefe"/><path class="white" d="m255.5 30.5c45.216-3.4531 67.549 17.5469 67 63-.61 6.3213-.944 12.655-1 19-30.667 0-61.333 0-92 0-.76 9.701.74 19.034 4.5 28 4.258 8.594 11.092 13.761 20.5 15.5 20.034 1.578 40.034 1.078 60-1.5 1.147.318 1.981.984 2.5 2 .499 5.323.666 10.656.5 16-11.973 1.364-23.973 2.531-36 3.5-12.043.865-24.043.532-36-1-16.022-3.021-26.855-12.188-32.5-27.5-8.628-28.005-8.628-56.0046 0-84 7.939-19.1147 22.106-30.1147 42.5-33zm1 19c7.738-.3561 15.405.1439 23 1.5 10.072 3.743 16.239 10.9097 18.5 21.5 1.382 7.2736 2.216 14.6069 2.5 22-24 0-48 0-72 0-.018-11.7483 2.816-22.7483 8.5-33 5.253-6.2015 11.753-10.2015 19.5-12z" fill="#221e1f" opacity=".99"/><path class="white" d="m379.5 30.5c17.126-.2341 34.126 1.0992 51 4-.863 5.9549-1.197 11.9549-1 18-14.957-1.7206-29.957-2.2206-45-1.5-13.405 1.4092-21.905 8.5759-25.5 21.5-4.64 20.6609-4.64 41.328 0 62 3.595 12.924 12.095 20.091 25.5 21.5 15.032.528 30.032.028 45-1.5.675 6.036.675 12.036 0 18-16.831 3.416-33.831 4.583-51 3.5-24.119-2.452-38.285-15.619-42.5-39.5-2.448-17.583-3.115-35.25-2-53 .423-15.9515 5.923-29.7848 16.5-41.5 8.781-6.3108 18.447-10.1441 29-11.5z" fill="#221e1f" opacity=".99"/><path class="white" d="m603.5 159.5v17c-13.073 1.03-24.573-2.636-34.5-11-22.321 10.857-45.488 13.357-69.5 7.5-11.552-5.91-18.052-15.41-19.5-28.5-5.632-27.936 5.201-45.1028 32.5-51.5 17.63-2.2239 35.296-4.0572 53-5.5.166-7.0079 0-14.0079-.5-21-3.791-12.0794-12.124-17.7461-25-17-17.55.7622-35.05 2.0955-52.5 4 0-5.6667 0-11.3333 0-17 21.419-4.6896 43.086-6.5229 65-5.5 19.949 1.9509 31.449 12.7842 34.5 32.5.333 28.3333.667 56.667 1 85 2.925 6.721 8.092 10.388 15.5 11zm-44-55h6c.167 15.004 0 30.004-.5 45-13.477 5.369-27.477 8.369-42 9-15.002-1.681-22.168-10.181-21.5-25.5-.069-13.242 6.264-21.242 19-24 13.162-1.381 26.162-2.881 39-4.5z" fill="#221e1f" opacity=".992"/><path class="white" d="m443.5 33.5h22v140c-7.333 0-14.667 0-22 0 0-46.667 0-93.3333 0-140z" fill="#231e1f"/><path class="white" d="m32.5 68.5c19.7922-.0691 26.6256 9.2642 20.5 28-6.6373 8.255-14.804 10.088-24.5 5.5-8.7819-7.8721-10.2819-17.0388-4.5-27.5 2.7361-2.2519 5.5695-4.2519 8.5-6z" fill="#fcfefe"/><path d="m130.5 116.5c18.65.982 25.15 10.315 19.5 28-6.987 8.313-15.487 10.146-25.5 5.5-9.312-8.492-10.312-17.825-3-28 2.763-2.374 5.763-4.208 9-5.5z" fill="#fcfefe"/><g fill="#221e1f"><path class="white" d="m-.5 207.5h20c10.8596 32.078 22.0263 64.078 33.5 96 11.5925-31.529 22.9258-63.196 34-95 6.7445-.979 13.578-1.312 20.5-1v113c-3.667 0-7.333 0-11 0 .3332-34.007-.0001-68.007-1-102-12.1062 32.55-23.9396 65.217-35.5 98-2.2426.637-4.5759.97-7 1-2.6254-.081-4.9587-.748-7-2-11.2728-32.486-22.9395-64.819-35-97-.5 33.998-.6667 67.998-.5 102-3.66667 0-7.33333 0-11 0 0-37.667 0-75.333 0-113z" opacity=".983"/><path class="white" d="m196.5 320.5c-23 0-46 0-69 0 0-37.667 0-75.333 0-113h69v10c-19.333 0-38.667 0-58 0v41h48v9c-16 0-32 0-48 0v44h58z" opacity=".998"/><path class="white" d="m322.5 320.5c-3.667 0-7.333 0-11 0 .333-34.007 0-68.007-1-102-12.323 32.466-24.156 65.133-35.5 98-2.243.637-4.576.97-7 1-2.625-.081-4.959-.748-7-2-11.273-32.486-22.939-64.819-35-97-.5 33.998-.667 67.998-.5 102-4 0-8 0-12 0 0-37.667 0-75.333 0-113h21c10.86 32.078 22.026 64.078 33.5 96 11.592-31.529 22.926-63.196 34-95 6.744-.979 13.578-1.312 20.5-1z" opacity=".983"/><path class="white" d="m397.5 320.5c-18.333 0-36.667 0-55 0 0-37.667 0-75.333 0-113 17.67-.167 35.336 0 53 .5 14.756 3.43 22.09 12.763 22 28 .695 11.277-3.638 19.943-13 26 11.205 5.391 16.872 14.391 17 27 .473 17.309-7.527 27.809-24 31.5zm-44-104c10.672-.167 21.339 0 32 .5 13.206.207 20.206 6.873 21 20-.224 13.223-6.891 20.223-20 21-10.995.5-21.995.667-33 .5 0-14 0-28 0-42zm0 51c11.671-.167 23.338 0 35 .5 17.185 1.83 24.019 11.33 20.5 28.5-3.424 10.144-10.591 14.977-21.5 14.5-11.328.5-22.662.667-34 .5 0-14.667 0-29.333 0-44z" opacity=".993"/><path class="white" d="m507.5 320.5c-23 0-46 0-69 0 0-37.667 0-75.333 0-113h69v10c-19.333 0-38.667 0-58 0v41h48v9c-16 0-32 0-48 0v44h58z" opacity=".999"/><path class="white" d="m603.5 318.5v2c-4 0-8 0-12 0-7.192-14.551-14.526-29.051-22-43.5-11.328-.5-22.662-.667-34-.5v44c-3.667 0-7.333 0-11 0 0-37.667 0-75.333 0-113 18.003-.167 36.003 0 54 .5 14.079 2.746 21.912 11.246 23.5 25.5 3.503 19.325-3.331 33.325-20.5 42 7.108 14.551 14.441 28.884 22 43zm-68-102c11.005-.167 22.005 0 33 .5 15.003 1.002 22.336 9.002 22 24 1.285 13.699-4.715 22.032-18 25-12.329.5-24.662.667-37 .5 0-16.667 0-33.333 0-50z" opacity=".992"/></g></svg>